<svg width="144" height="236" viewBox="0 0 144 236" fill="none" xmlns="http://www.w3.org/2000/svg">
<rect x="1.25" y="1.25" width="141.5" height="233.5" rx="22.75" fill="white"/>
<rect x="1.25" y="1.25" width="141.5" height="233.5" rx="22.75" stroke="#BF3122" stroke-width="2.5" stroke-linejoin="bevel"/>
<g clip-path="url(#clip0_63_1202)">
<path d="M116.833 16.0091C118.547 15.8654 120.137 17.453 119.991 19.1673C119.779 21.6096 116.74 77.1058 98.9795 94.8667C81.9567 111.887 61.9025 107.894 48.8048 98.4778C48.6466 98.3634 48.4688 98.227 48.274 98.0712L36.4694 109.861C33.6156 112.713 28.9917 112.713 26.1403 109.861C23.2866 107.008 23.2866 102.384 26.1403 99.5322L37.9328 87.7273C37.7745 87.53 37.6382 87.3523 37.5237 87.194C28.1102 74.0985 24.1144 54.0414 41.1348 37.0183C58.8904 19.2574 114.388 16.216 116.833 16.0091Z" fill="#BF3122"/>
<path d="M64.9395 83.5566C62.1562 83.5566 60.5156 81.8574 60.5156 78.957V45.3242C60.5156 42.4238 62.1562 40.7246 64.9395 40.7246H84.7148C87.1465 40.7246 88.7285 42.1016 88.7285 44.3867C88.7285 46.6719 87.1172 48.0488 84.7148 48.0488H69.3633V59.3574H83.2793C85.5645 59.3574 87.0586 60.6758 87.0586 62.8438C87.0586 65.041 85.5938 66.3594 83.2793 66.3594H69.3633V78.957C69.3633 81.8574 67.7227 83.5566 64.9395 83.5566Z" fill="white"/>
</g>
<path d="M35.5371 129.227V154.136C35.5371 160.363 31.7365 164.099 25.402 164.099C20.3344 164.099 17.8007 160.363 17.8007 160.363V154.136C17.8007 154.136 21.6013 159.117 25.402 159.117C29.2027 159.117 30.4696 156.626 30.4696 154.136V151.047C29.0506 151.346 27.2263 151.645 25.402 151.645C19.0676 151.645 14 146.663 14 140.436C14 134.209 19.0676 129.227 25.402 129.227H35.5371ZM25.402 146.663C26.7702 146.663 28.8479 146.314 30.4696 145.966V134.209H25.402C21.6013 134.209 19.0676 136.7 19.0676 140.436C19.0676 144.172 21.6013 146.663 25.402 146.663Z" fill="#1D1D1B"/>
<path d="M45.1655 139.191C45.1655 132.963 48.9661 129.227 55.3006 129.227V134.209C50.233 134.209 45.1655 135.454 45.1655 141.681V154.136H40.0979V129.227H45.1655V139.191Z" fill="#1D1D1B"/>
<path d="M78.8944 141.681V142.927H61.2593C61.8168 147.062 65.3134 149.154 68.7593 149.154C73.8269 149.154 76.3606 146.663 76.3606 146.663V151.645C76.3606 151.645 73.8269 154.136 68.7593 154.136C61.158 154.136 56.0904 149.154 56.0904 141.681C56.0904 134.209 61.158 129.227 67.4924 129.227C73.8269 129.227 78.8944 134.209 78.8944 141.681ZM67.4924 134.209C64.4012 134.209 62.1208 135.853 61.4114 139.191H73.5735C72.864 135.853 70.5836 134.209 67.4924 134.209Z" fill="#1D1D1B"/>
<path d="M103.725 141.681V142.927H86.0904C86.6478 147.062 90.1444 149.154 93.5903 149.154C98.6579 149.154 101.192 146.663 101.192 146.663V151.645C101.192 151.645 98.6579 154.136 93.5903 154.136C85.989 154.136 80.9214 149.154 80.9214 141.681C80.9214 134.209 85.989 129.227 92.3234 129.227C98.6579 129.227 103.725 134.209 103.725 141.681ZM92.3234 134.209C89.2322 134.209 86.9518 135.853 86.2424 139.191H98.4045C97.6951 135.853 95.4147 134.209 92.3234 134.209Z" fill="#1D1D1B"/>
<path d="M120.955 129.227C126.023 129.227 129.823 132.963 129.823 139.191V154.136H124.756V141.681C124.756 136.7 122.222 134.209 118.421 134.209C114.621 134.209 112.087 136.7 112.087 141.681V154.136H107.019V129.227H112.087V139.191C112.087 132.963 115.888 129.227 120.955 129.227Z" fill="#1D1D1B"/>
<rect x="99.6666" y="165.5" width="31.3333" height="17" rx="8.5" fill="#BF3122" stroke="white" stroke-width="2"/>
<rect x="82.3334" y="165.5" width="31.3333" height="17" rx="8.5" fill="#DE4523" stroke="white" stroke-width="2"/>
<rect x="65" y="165.5" width="31.3333" height="17" rx="8.5" fill="#EF7E1A" stroke="white" stroke-width="2"/>
<rect x="47.6666" y="165.5" width="31.3333" height="17" rx="8.5" fill="#F5C100" stroke="white" stroke-width="2"/>
<rect x="30.3334" y="165.5" width="31.3333" height="17" rx="8.5" fill="#2ECC71" stroke="white" stroke-width="2"/>
<rect x="13" y="165.5" width="31.3333" height="17" rx="8.5" fill="#1E8F4E" stroke="white" stroke-width="2"/>
<path fill-rule="evenodd" clip-rule="evenodd" d="M55.3519 193.401V199C55.3519 199 51.1702 197.599 48.3832 197.599C44.2015 197.599 40.0199 200.399 40.0199 206C40.0199 211.599 44.2015 214.401 48.3832 214.401C51.1702 214.401 55.3519 213 55.3519 213V218.599C55.3519 218.599 52.5649 220 48.3832 220C40.0199 220 34.4458 214.401 34.4458 206C34.4458 197.599 40.0199 192 48.3832 192C52.5649 192 55.3519 193.401 55.3519 193.401ZM23.0179 220C18.8362 220 14.6545 218.599 14.6545 218.599V213C14.6545 213 18.8362 214.401 23.0179 214.401C25.8049 214.401 27.1996 213 27.1996 211.601C27.1996 209.939 25.1332 209.373 22.6356 208.689C18.8208 207.644 14 206.323 14 200.401C14 194.802 17.4439 192 23.0202 192C27.2019 192 31.3836 193.401 31.3836 193.401V199C31.3836 199 27.2019 197.599 23.0202 197.599C20.2332 197.599 18.8385 199 18.8385 200.399C18.8385 202.061 21.0204 202.627 23.6576 203.311C27.6857 204.356 32.7759 205.677 32.7759 211.599C32.7736 217.2 28.5919 220 23.0179 220ZM85.5118 206C85.5118 214.401 79.9378 220 71.5744 220C63.2111 220 57.637 214.401 57.637 206C57.637 197.599 63.2111 192 71.5744 192C79.9378 192 85.5118 197.599 85.5118 206ZM63.2134 206C63.2134 211.599 67.3951 214.401 71.5767 214.401C75.7584 214.401 79.9401 211.601 79.9401 206C79.9401 200.401 75.7584 197.599 71.5767 197.599C67.3951 197.599 63.2134 200.401 63.2134 206ZM104.635 192V197.599C99.0607 197.599 93.4843 199 93.4843 206V220H87.9103V192H93.4843V203.2C93.4843 196.2 97.666 192 104.635 192ZM130 207.401H110.602C111.215 212.05 115.061 214.401 118.852 214.401C124.426 214.401 127.215 211.601 127.215 211.601V217.2C127.215 217.2 124.428 220 118.852 220C110.489 220 104.915 214.401 104.915 206C104.915 197.599 110.489 192 117.457 192C124.426 192 130 197.599 130 206V207.401ZM110.768 203.2H124.148C123.369 199.448 120.86 197.601 117.46 197.601C114.057 197.599 111.548 199.448 110.768 203.2Z" fill="#1D1D1B"/>
<defs>
<clipPath id="clip0_63_1202">
<rect width="96" height="96" fill="white" transform="translate(24 16)"/>
</clipPath>
</defs>
</svg>
