<svg width="144" height="236" viewBox="0 0 144 236" fill="none" xmlns="http://www.w3.org/2000/svg">
<rect x="1.25" y="1.25" width="141.5" height="233.5" rx="22.75" fill="white"/>
<rect x="1.25" y="1.25" width="141.5" height="233.5" rx="22.75" stroke="#1E8F4E" stroke-width="2.5" stroke-linejoin="bevel"/>
<path d="M116.833 16.0091C118.547 15.8654 120.137 17.453 119.991 19.1673C119.779 21.6096 116.74 77.1058 98.98 94.8667C81.9601 111.887 61.9039 107.894 48.8067 98.4778C48.6484 98.3634 48.4706 98.227 48.2758 98.0712L36.4691 109.861C33.6154 112.713 28.9915 112.713 26.1403 109.861C23.2866 107.008 23.2866 102.384 26.1403 99.5322L37.9324 87.7273C37.7742 87.53 37.6378 87.3523 37.5234 87.194C28.1101 74.0985 24.1144 54.0414 41.1343 37.0183C58.8944 19.2574 114.388 16.216 116.833 16.0091Z" fill="#1E8F4E"/>
<path fill-rule="evenodd" clip-rule="evenodd" d="M88.7073 79.8518C88.7073 82.2651 86.8756 83.9806 84.3171 83.9806C81.8457 83.9806 80.5374 82.8466 79.7523 80.1135L77.5427 73.4842H62.3948L60.1851 80.0263C59.371 82.8176 58.0627 83.9806 55.7367 83.9806C53.0037 83.9806 51.2883 82.3814 51.2883 79.8518C51.2883 79.1249 51.4918 78.1363 51.8698 77.0605L63.3252 45.862C64.5463 42.4601 66.6106 40.89 69.9251 40.89C73.3559 40.89 75.3911 42.4019 76.6413 45.8329L88.1549 77.0605C88.562 78.1945 88.7073 78.9795 88.7073 79.8518ZM64.3137 66.6804H75.5075L69.9542 49.4965H69.7507L64.3137 66.6804Z" fill="white"/>
<path d="M94.9204 52.4541C93.1987 52.4541 92.1699 51.3413 92.1699 49.5356V43.5308H86.438C84.7163 43.5308 83.6245 42.5229 83.6245 40.8433C83.6245 39.1846 84.7163 38.1768 86.438 38.1768H92.1699V32.1299C92.1699 30.3452 93.2197 29.2114 94.9204 29.2114C96.6211 29.2114 97.6499 30.3452 97.6499 32.1299V38.1768H103.361C105.104 38.1768 106.195 39.1846 106.195 40.8433C106.195 42.5229 105.083 43.5308 103.34 43.5308H97.6499V49.5356C97.6499 51.3413 96.6211 52.4541 94.9204 52.4541Z" fill="white"/>
<path d="M35.5371 129.227V154.136C35.5371 160.363 31.7365 164.099 25.402 164.099C20.3344 164.099 17.8007 160.363 17.8007 160.363V154.136C17.8007 154.136 21.6013 159.117 25.402 159.117C29.2027 159.117 30.4696 156.626 30.4696 154.136V151.047C29.0506 151.346 27.2263 151.645 25.402 151.645C19.0676 151.645 14 146.663 14 140.436C14 134.209 19.0676 129.227 25.402 129.227H35.5371ZM25.402 146.663C26.7702 146.663 28.8479 146.314 30.4696 145.966V134.209H25.402C21.6013 134.209 19.0676 136.7 19.0676 140.436C19.0676 144.172 21.6013 146.663 25.402 146.663Z" fill="#1D1D1B"/>
<path d="M45.1655 139.191C45.1655 132.963 48.9661 129.227 55.3006 129.227V134.209C50.233 134.209 45.1655 135.454 45.1655 141.681V154.136H40.0979V129.227H45.1655V139.191Z" fill="#1D1D1B"/>
<path d="M78.8944 141.681V142.927H61.2593C61.8168 147.062 65.3134 149.154 68.7593 149.154C73.8269 149.154 76.3606 146.663 76.3606 146.663V151.645C76.3606 151.645 73.8269 154.136 68.7593 154.136C61.158 154.136 56.0904 149.154 56.0904 141.681C56.0904 134.209 61.158 129.227 67.4924 129.227C73.8269 129.227 78.8944 134.209 78.8944 141.681ZM67.4924 134.209C64.4012 134.209 62.1208 135.853 61.4114 139.191H73.5735C72.864 135.853 70.5836 134.209 67.4924 134.209Z" fill="#1D1D1B"/>
<path d="M103.725 141.681V142.927H86.0904C86.6478 147.062 90.1444 149.154 93.5903 149.154C98.6579 149.154 101.192 146.663 101.192 146.663V151.645C101.192 151.645 98.6579 154.136 93.5903 154.136C85.989 154.136 80.9214 149.154 80.9214 141.681C80.9214 134.209 85.989 129.227 92.3234 129.227C98.6579 129.227 103.725 134.209 103.725 141.681ZM92.3234 134.209C89.2322 134.209 86.9518 135.853 86.2424 139.191H98.4045C97.6951 135.853 95.4147 134.209 92.3234 134.209Z" fill="#1D1D1B"/>
<path d="M120.955 129.227C126.023 129.227 129.823 132.963 129.823 139.191V154.136H124.756V141.681C124.756 136.7 122.222 134.209 118.421 134.209C114.621 134.209 112.087 136.7 112.087 141.681V154.136H107.019V129.227H112.087V139.191C112.087 132.963 115.888 129.227 120.955 129.227Z" fill="#1D1D1B"/>
<rect x="99.6667" y="165.5" width="31.3333" height="17" rx="8.5" fill="#BF3122" stroke="white" stroke-width="2"/>
<rect x="82.3333" y="165.5" width="31.3333" height="17" rx="8.5" fill="#DE4523" stroke="white" stroke-width="2"/>
<rect x="65" y="165.5" width="31.3333" height="17" rx="8.5" fill="#EF7E1A" stroke="white" stroke-width="2"/>
<rect x="47.6667" y="165.5" width="31.3333" height="17" rx="8.5" fill="#F5C100" stroke="white" stroke-width="2"/>
<rect x="30.3333" y="165.5" width="31.3333" height="17" rx="8.5" fill="#2ECC71" stroke="white" stroke-width="2"/>
<rect x="13" y="165.5" width="31.3333" height="17" rx="8.5" fill="#1E8F4E" stroke="white" stroke-width="2"/>
<path fill-rule="evenodd" clip-rule="evenodd" d="M55.3519 193.401V199C55.3519 199 51.1702 197.599 48.3832 197.599C44.2015 197.599 40.0199 200.399 40.0199 206C40.0199 211.599 44.2015 214.401 48.3832 214.401C51.1702 214.401 55.3519 213 55.3519 213V218.599C55.3519 218.599 52.5649 220 48.3832 220C40.0199 220 34.4458 214.401 34.4458 206C34.4458 197.599 40.0199 192 48.3832 192C52.5649 192 55.3519 193.401 55.3519 193.401ZM23.0179 220C18.8362 220 14.6545 218.599 14.6545 218.599V213C14.6545 213 18.8362 214.401 23.0179 214.401C25.8049 214.401 27.1996 213 27.1996 211.601C27.1996 209.939 25.1332 209.373 22.6356 208.689C18.8208 207.644 14 206.323 14 200.401C14 194.802 17.4439 192 23.0202 192C27.2019 192 31.3836 193.401 31.3836 193.401V199C31.3836 199 27.2019 197.599 23.0202 197.599C20.2332 197.599 18.8385 199 18.8385 200.399C18.8385 202.061 21.0204 202.627 23.6576 203.311C27.6857 204.356 32.7759 205.677 32.7759 211.599C32.7736 217.2 28.5919 220 23.0179 220ZM85.5118 206C85.5118 214.401 79.9378 220 71.5744 220C63.2111 220 57.637 214.401 57.637 206C57.637 197.599 63.2111 192 71.5744 192C79.9378 192 85.5118 197.599 85.5118 206ZM63.2134 206C63.2134 211.599 67.3951 214.401 71.5767 214.401C75.7584 214.401 79.9401 211.601 79.9401 206C79.9401 200.401 75.7584 197.599 71.5767 197.599C67.3951 197.599 63.2134 200.401 63.2134 206ZM104.635 192V197.599C99.0607 197.599 93.4843 199 93.4843 206V220H87.9103V192H93.4843V203.2C93.4843 196.2 97.666 192 104.635 192ZM130 207.401H110.602C111.215 212.05 115.061 214.401 118.852 214.401C124.426 214.401 127.215 211.601 127.215 211.601V217.2C127.215 217.2 124.428 220 118.852 220C110.489 220 104.915 214.401 104.915 206C104.915 197.599 110.489 192 117.457 192C124.426 192 130 197.599 130 206V207.401ZM110.768 203.2H124.148C123.369 199.448 120.86 197.601 117.46 197.601C114.057 197.599 111.548 199.448 110.768 203.2Z" fill="#1D1D1B"/>
</svg>
